<?xml version="1.0" standalone="no"?>
<!DOCTYPE svg PUBLIC "-//W3C//DTD SVG 20010904//EN"
 "http://www.w3.org/TR/2001/REC-SVG-20010904/DTD/svg10.dtd">
<svg version="1.0" xmlns="http://www.w3.org/2000/svg"
 width="272.000000pt" height="81.000000pt" viewBox="0 0 272.000000 81.000000"
 preserveAspectRatio="xMidYMid meet">

<g transform="translate(0.000000,81.000000) scale(0.100000,-0.100000)"
fill="#000000" stroke="none">
<path d="M1791 798 c-18 -5 -54 -31 -80 -57 l-46 -47 -23 28 c-37 44 -89 34
-112 -21 l-12 -30 -33 34 c-40 43 -91 65 -149 65 -59 0 -86 -11 -137 -57 -49
-44 -78 -102 -79 -156 0 -24 -9 -52 -25 -75 -14 -20 -25 -41 -25 -47 0 -6 -35
-10 -88 -10 l-88 0 0 105 c1 168 -44 250 -138 250 -60 0 -149 -60 -183 -123
-8 -15 -12 -8 -22 35 -15 65 -44 98 -86 98 -43 0 -80 -31 -100 -85 l-18 -45
-29 38 c-39 49 -104 92 -139 92 -155 0 -244 -486 -121 -665 37 -55 85 -78 125
-62 30 13 62 61 72 111 l6 28 28 -45 c37 -57 66 -77 115 -77 53 0 99 37 122
96 l17 45 14 -33 c29 -69 100 -120 184 -133 87 -13 241 44 295 108 14 16 26
28 27 26 1 -2 12 -24 24 -49 31 -67 68 -106 119 -126 39 -15 53 -15 97 -5 68
15 136 60 197 130 38 43 50 51 50 36 0 -28 34 -81 65 -101 21 -14 30 -15 56
-4 36 16 72 61 89 114 l13 40 19 -52 c11 -28 31 -61 45 -72 33 -26 88 -26 131
0 36 22 87 97 97 141 9 38 19 43 49 24 l25 -16 -20 -33 c-56 -95 62 -199 206
-182 231 27 373 226 321 449 -31 132 -85 194 -190 218 -101 22 -251 -20 -333
-95 l-40 -36 -18 61 c-22 72 -63 132 -108 159 -35 22 -107 25 -166 8z m137
-52 c48 -25 93 -132 107 -257 14 -116 -32 -282 -91 -328 -60 -47 -90 -11 -122
149 -11 52 -27 112 -36 134 -13 32 -18 37 -31 26 -10 -8 -15 -31 -15 -71 0
-67 -23 -187 -46 -235 -47 -99 -117 -5 -98 131 14 102 9 195 -15 248 -11 27
-21 64 -21 83 0 37 15 74 29 74 15 0 45 -53 51 -90 3 -19 10 -35 15 -35 6 1
22 26 36 55 29 59 56 90 104 114 37 20 97 20 133 2z m-1421 -43 c13 -28 18
-78 21 -194 3 -135 1 -168 -17 -240 -23 -93 -45 -129 -85 -143 -21 -8 -32 -6
-54 11 -55 41 -93 129 -127 296 -3 15 -12 27 -20 27 -18 0 -20 -56 -4 -131 19
-88 -17 -219 -60 -219 -45 0 -90 86 -101 194 -20 197 47 426 125 426 55 0 152
-122 192 -240 22 -64 42 -89 44 -53 2 37 -3 70 -22 126 -18 53 -18 60 -4 95
26 62 44 82 71 82 19 0 29 -8 41 -37z m311 -23 c21 -41 23 -56 20 -159 -2 -82
-7 -116 -16 -119 -32 -10 -107 -69 -110 -86 -4 -17 1 -16 45 8 26 14 62 31 78
37 46 17 146 29 183 23 32 -6 32 -7 32 -62 0 -44 -6 -64 -26 -93 -80 -116
-280 -164 -372 -89 -49 40 -64 99 -65 264 -2 161 4 191 51 254 34 47 80 73
122 70 30 -3 38 -9 58 -48z m585 24 c43 -22 61 -45 108 -138 35 -72 39 -88 39
-156 0 -66 -4 -86 -32 -141 -35 -69 -113 -156 -169 -185 -20 -10 -57 -18 -88
-18 -51 -1 -55 1 -92 43 -50 56 -73 129 -58 183 5 22 7 53 4 69 -6 27 10 89
22 89 3 0 16 -9 30 -20 23 -18 53 -27 53 -15 0 2 -11 21 -25 41 -19 27 -25 50
-25 88 0 123 129 212 233 160z m1087 -76 c37 -19 51 -34 75 -83 27 -53 30 -70
30 -150 0 -81 -3 -96 -30 -144 -53 -97 -159 -161 -264 -161 -89 0 -131 27
-131 82 0 43 22 60 89 69 34 5 72 15 84 21 19 11 7 14 -85 18 -100 5 -109 7
-135 32 -25 26 -27 32 -24 105 2 95 26 136 101 177 114 62 211 73 290 34z"/>
<path d="M1360 435 l-24 -25 -23 22 c-18 16 -26 19 -35 10 -9 -9 -7 -21 7 -51
l18 -40 -27 -31 c-14 -18 -24 -36 -20 -41 6 -10 13 -7 55 23 25 16 30 17 63 3
53 -22 64 -9 26 30 -30 31 -31 34 -17 56 40 64 24 94 -23 44z"/>
<path d="M2326 484 c-31 -21 -40 -24 -47 -13 -5 8 -9 19 -9 24 -1 20 -20 -21
-20 -43 0 -12 -7 -25 -15 -28 -29 -11 -17 -34 18 -33 17 0 48 -3 67 -7 l35 -7
-19 21 c-18 21 -18 22 13 51 28 27 42 61 23 61 -4 0 -25 -12 -46 -26z"/>
<path d="M2587 133 c-28 -31 -30 -66 -7 -96 43 -54 140 -21 140 47 0 19 -8 40
-18 49 -25 23 -94 22 -115 0z m80 -48 c-5 -14 -47 -19 -47 -5 0 6 5 21 11 32
11 21 12 21 25 3 8 -11 13 -24 11 -30z"/>
</g>
</svg>
